<?xml version="1.0" encoding="UTF-8" standalone="no"?>
<!DOCTYPE svg PUBLIC "-//W3C//DTD SVG 1.1//EN"
 "http://www.w3.org/Graphics/SVG/1.1/DTD/svg11.dtd">
<!-- Generated by graphviz version 2.38.0 (20140413.2041)
 -->
<!-- Title: %3 Pages: 1 -->
<svg width="1195pt" height="476pt"
 viewBox="0.00 0.00 1194.81 476.00" xmlns="http://www.w3.org/2000/svg" xmlns:xlink="http://www.w3.org/1999/xlink">
<g id="graph0" class="graph" transform="scale(1 1) rotate(0) translate(4 472)">
<title>%3</title>
<polygon fill="white" stroke="none" points="-4,4 -4,-472 1190.81,-472 1190.81,4 -4,4"/>
<!-- [root] azurerm_public_ip.myip -->
<g id="node1" class="node"><title>[root] azurerm_public_ip.myip</title>
<polygon fill="none" stroke="black" points="441.685,-252 252.685,-252 252.685,-216 441.685,-216 441.685,-252"/>
<text text-anchor="middle" x="347.185" y="-230.3" font-family="Times,serif" font-size="14.00">azurerm_public_ip.myip</text>
</g>
<!-- [root] azurerm_resource_group.thegroup -->
<g id="node2" class="node"><title>[root] azurerm_resource_group.thegroup</title>
<polygon fill="none" stroke="black" points="723.185,-180 457.185,-180 457.185,-144 723.185,-144 723.185,-180"/>
<text text-anchor="middle" x="590.185" y="-158.3" font-family="Times,serif" font-size="14.00">azurerm_resource_group.thegroup</text>
</g>
<!-- [root] azurerm_public_ip.myip&#45;&gt;[root] azurerm_resource_group.thegroup -->
<g id="edge1" class="edge"><title>[root] azurerm_public_ip.myip&#45;&gt;[root] azurerm_resource_group.thegroup</title>
<path fill="none" stroke="black" d="M406.318,-215.966C440.861,-206.015 484.632,-193.406 520.8,-182.987"/>
<polygon fill="black" stroke="black" points="522.145,-186.242 530.786,-180.111 520.207,-179.516 522.145,-186.242"/>
</g>
<!-- [root] provisioner.local&#45;exec -->
<g id="node6" class="node"><title>[root] provisioner.local&#45;exec</title>
<ellipse fill="none" stroke="black" cx="299.185" cy="-162" rx="140.275" ry="18"/>
<text text-anchor="middle" x="299.185" y="-158.3" font-family="Times,serif" font-size="14.00">[root] provisioner.local&#45;exec</text>
</g>
<!-- [root] azurerm_public_ip.myip&#45;&gt;[root] provisioner.local&#45;exec -->
<g id="edge2" class="edge"><title>[root] azurerm_public_ip.myip&#45;&gt;[root] provisioner.local&#45;exec</title>
<path fill="none" stroke="black" d="M335.319,-215.697C329.681,-207.474 322.83,-197.483 316.616,-188.421"/>
<polygon fill="black" stroke="black" points="319.455,-186.372 310.913,-180.104 313.682,-190.331 319.455,-186.372"/>
</g>
<!-- [root] provider.azurerm -->
<g id="node5" class="node"><title>[root] provider.azurerm</title>
<polygon fill="none" stroke="black" points="590.185,-108 461.32,-90 590.185,-72 719.049,-90 590.185,-108"/>
<text text-anchor="middle" x="590.185" y="-86.3" font-family="Times,serif" font-size="14.00">provider.azurerm</text>
</g>
<!-- [root] azurerm_resource_group.thegroup&#45;&gt;[root] provider.azurerm -->
<g id="edge3" class="edge"><title>[root] azurerm_resource_group.thegroup&#45;&gt;[root] provider.azurerm</title>
<path fill="none" stroke="black" d="M590.185,-143.697C590.185,-135.983 590.185,-126.712 590.185,-118.112"/>
<polygon fill="black" stroke="black" points="593.685,-118.104 590.185,-108.104 586.685,-118.104 593.685,-118.104"/>
</g>
<!-- [root] var.location -->
<g id="node7" class="node"><title>[root] var.location</title>
<ellipse fill="none" stroke="black" cx="830.185" cy="-90" rx="93.6835" ry="18"/>
<text text-anchor="middle" x="830.185" y="-86.3" font-family="Times,serif" font-size="14.00">[root] var.location</text>
</g>
<!-- [root] azurerm_resource_group.thegroup&#45;&gt;[root] var.location -->
<g id="edge4" class="edge"><title>[root] azurerm_resource_group.thegroup&#45;&gt;[root] var.location</title>
<path fill="none" stroke="black" d="M648.588,-143.966C685.78,-133.118 733.802,-119.111 771.121,-108.227"/>
<polygon fill="black" stroke="black" points="772.234,-111.548 780.854,-105.388 770.274,-104.828 772.234,-111.548"/>
</g>
<!-- [root] var.rg -->
<g id="node8" class="node"><title>[root] var.rg</title>
<ellipse fill="none" stroke="black" cx="376.185" cy="-90" rx="66.8882" ry="18"/>
<text text-anchor="middle" x="376.185" y="-86.3" font-family="Times,serif" font-size="14.00">[root] var.rg</text>
</g>
<!-- [root] azurerm_resource_group.thegroup&#45;&gt;[root] var.rg -->
<g id="edge5" class="edge"><title>[root] azurerm_resource_group.thegroup&#45;&gt;[root] var.rg</title>
<path fill="none" stroke="black" d="M538.108,-143.966C504.214,-132.879 460.232,-118.492 426.662,-107.511"/>
<polygon fill="black" stroke="black" points="427.638,-104.148 417.045,-104.366 425.461,-110.801 427.638,-104.148"/>
</g>
<!-- [root] azurerm_subnet.mysub -->
<g id="node3" class="node"><title>[root] azurerm_subnet.mysub</title>
<polygon fill="none" stroke="black" points="672.685,-324 487.685,-324 487.685,-288 672.685,-288 672.685,-324"/>
<text text-anchor="middle" x="580.185" y="-302.3" font-family="Times,serif" font-size="14.00">azurerm_subnet.mysub</text>
</g>
<!-- [root] azurerm_virtual_network.mynet -->
<g id="node4" class="node"><title>[root] azurerm_virtual_network.mynet</title>
<polygon fill="none" stroke="black" points="708.185,-252 460.185,-252 460.185,-216 708.185,-216 708.185,-252"/>
<text text-anchor="middle" x="584.185" y="-230.3" font-family="Times,serif" font-size="14.00">azurerm_virtual_network.mynet</text>
</g>
<!-- [root] azurerm_subnet.mysub&#45;&gt;[root] azurerm_virtual_network.mynet -->
<g id="edge6" class="edge"><title>[root] azurerm_subnet.mysub&#45;&gt;[root] azurerm_virtual_network.mynet</title>
<path fill="none" stroke="black" d="M581.173,-287.697C581.614,-279.983 582.144,-270.712 582.635,-262.112"/>
<polygon fill="black" stroke="black" points="586.131,-262.288 583.207,-252.104 579.142,-261.888 586.131,-262.288"/>
</g>
<!-- [root] azurerm_virtual_network.mynet&#45;&gt;[root] azurerm_resource_group.thegroup -->
<g id="edge7" class="edge"><title>[root] azurerm_virtual_network.mynet&#45;&gt;[root] azurerm_resource_group.thegroup</title>
<path fill="none" stroke="black" d="M585.668,-215.697C586.329,-207.983 587.123,-198.712 587.861,-190.112"/>
<polygon fill="black" stroke="black" points="591.352,-190.367 588.718,-180.104 584.377,-189.769 591.352,-190.367"/>
</g>
<!-- [root] var.appid -->
<g id="node14" class="node"><title>[root] var.appid</title>
<ellipse fill="none" stroke="black" cx="958.185" cy="-18" rx="82.5854" ry="18"/>
<text text-anchor="middle" x="958.185" y="-14.3" font-family="Times,serif" font-size="14.00">[root] var.appid</text>
</g>
<!-- [root] provider.azurerm&#45;&gt;[root] var.appid -->
<g id="edge18" class="edge"><title>[root] provider.azurerm&#45;&gt;[root] var.appid</title>
<path fill="none" stroke="black" d="M641.741,-79.1931C706.07,-66.9567 816.344,-45.9806 888.245,-32.3037"/>
<polygon fill="black" stroke="black" points="888.957,-35.731 898.127,-30.4239 887.649,-28.8543 888.957,-35.731"/>
</g>
<!-- [root] var.password -->
<g id="node16" class="node"><title>[root] var.password</title>
<ellipse fill="none" stroke="black" cx="564.185" cy="-18" rx="100.983" ry="18"/>
<text text-anchor="middle" x="564.185" y="-14.3" font-family="Times,serif" font-size="14.00">[root] var.password</text>
</g>
<!-- [root] provider.azurerm&#45;&gt;[root] var.password -->
<g id="edge19" class="edge"><title>[root] provider.azurerm&#45;&gt;[root] var.password</title>
<path fill="none" stroke="black" d="M584.154,-72.7646C581.158,-64.6971 577.46,-54.7411 574.064,-45.5981"/>
<polygon fill="black" stroke="black" points="577.308,-44.2795 570.545,-36.1239 570.746,-46.7169 577.308,-44.2795"/>
</g>
<!-- [root] var.sub_id -->
<g id="node17" class="node"><title>[root] var.sub_id</title>
<ellipse fill="none" stroke="black" cx="770.185" cy="-18" rx="87.1846" ry="18"/>
<text text-anchor="middle" x="770.185" y="-14.3" font-family="Times,serif" font-size="14.00">[root] var.sub_id</text>
</g>
<!-- [root] provider.azurerm&#45;&gt;[root] var.sub_id -->
<g id="edge20" class="edge"><title>[root] provider.azurerm&#45;&gt;[root] var.sub_id</title>
<path fill="none" stroke="black" d="M622.365,-76.4854C649.949,-65.7582 690.1,-50.1442 721.596,-37.8954"/>
<polygon fill="black" stroke="black" points="723.019,-41.0977 731.07,-34.2112 720.481,-34.5737 723.019,-41.0977"/>
</g>
<!-- [root] var.tenant -->
<g id="node18" class="node"><title>[root] var.tenant</title>
<ellipse fill="none" stroke="black" cx="358.185" cy="-18" rx="87.1846" ry="18"/>
<text text-anchor="middle" x="358.185" y="-14.3" font-family="Times,serif" font-size="14.00">[root] var.tenant</text>
</g>
<!-- [root] provider.azurerm&#45;&gt;[root] var.tenant -->
<g id="edge21" class="edge"><title>[root] provider.azurerm&#45;&gt;[root] var.tenant</title>
<path fill="none" stroke="black" d="M551.614,-77.3623C514.319,-66.1094 457.371,-48.9269 414.911,-36.1157"/>
<polygon fill="black" stroke="black" points="415.853,-32.7443 405.269,-33.2064 413.831,-39.4459 415.853,-32.7443"/>
</g>
<!-- [root] meta.count&#45;boundary (count boundary fixup) -->
<g id="node9" class="node"><title>[root] meta.count&#45;boundary (count boundary fixup)</title>
<ellipse fill="none" stroke="black" cx="939.185" cy="-378" rx="247.756" ry="18"/>
<text text-anchor="middle" x="939.185" y="-374.3" font-family="Times,serif" font-size="14.00">[root] meta.count&#45;boundary (count boundary fixup)</text>
</g>
<!-- [root] meta.count&#45;boundary (count boundary fixup)&#45;&gt;[root] azurerm_subnet.mysub -->
<g id="edge8" class="edge"><title>[root] meta.count&#45;boundary (count boundary fixup)&#45;&gt;[root] azurerm_subnet.mysub</title>
<path fill="none" stroke="black" d="M856.823,-360.941C803.412,-350.526 733.582,-336.91 677.444,-325.964"/>
<polygon fill="black" stroke="black" points="677.972,-322.501 667.487,-324.023 676.632,-329.372 677.972,-322.501"/>
</g>
<!-- [root] output.bubba -->
<g id="node10" class="node"><title>[root] output.bubba</title>
<ellipse fill="none" stroke="black" cx="828.185" cy="-234" rx="102.082" ry="18"/>
<text text-anchor="middle" x="828.185" y="-230.3" font-family="Times,serif" font-size="14.00">[root] output.bubba</text>
</g>
<!-- [root] meta.count&#45;boundary (count boundary fixup)&#45;&gt;[root] output.bubba -->
<g id="edge9" class="edge"><title>[root] meta.count&#45;boundary (count boundary fixup)&#45;&gt;[root] output.bubba</title>
<path fill="none" stroke="black" d="M934.844,-359.819C929.389,-340.754 918.573,-309.805 901.185,-288 891.585,-275.962 878.592,-265.353 866.228,-256.851"/>
<polygon fill="black" stroke="black" points="868.095,-253.89 857.819,-251.311 864.244,-259.735 868.095,-253.89"/>
</g>
<!-- [root] output.more -->
<g id="node11" class="node"><title>[root] output.more</title>
<ellipse fill="none" stroke="black" cx="958.185" cy="-162" rx="96.6831" ry="18"/>
<text text-anchor="middle" x="958.185" y="-158.3" font-family="Times,serif" font-size="14.00">[root] output.more</text>
</g>
<!-- [root] meta.count&#45;boundary (count boundary fixup)&#45;&gt;[root] output.more -->
<g id="edge10" class="edge"><title>[root] meta.count&#45;boundary (count boundary fixup)&#45;&gt;[root] output.more</title>
<path fill="none" stroke="black" d="M940.707,-359.849C943.994,-322.832 951.776,-235.181 955.753,-190.386"/>
<polygon fill="black" stroke="black" points="959.256,-190.503 956.655,-180.232 952.284,-189.884 959.256,-190.503"/>
</g>
<!-- [root] output.vm_ip -->
<g id="node12" class="node"><title>[root] output.vm_ip</title>
<ellipse fill="none" stroke="black" cx="791.185" cy="-306" rx="100.983" ry="18"/>
<text text-anchor="middle" x="791.185" y="-302.3" font-family="Times,serif" font-size="14.00">[root] output.vm_ip</text>
</g>
<!-- [root] meta.count&#45;boundary (count boundary fixup)&#45;&gt;[root] output.vm_ip -->
<g id="edge11" class="edge"><title>[root] meta.count&#45;boundary (count boundary fixup)&#45;&gt;[root] output.vm_ip</title>
<path fill="none" stroke="black" d="M903.358,-360.055C882.548,-350.212 856.192,-337.747 834.257,-327.372"/>
<polygon fill="black" stroke="black" points="835.692,-324.179 825.156,-323.068 832.7,-330.507 835.692,-324.179"/>
</g>
<!-- [root] var.yo -->
<g id="node13" class="node"><title>[root] var.yo</title>
<ellipse fill="none" stroke="black" cx="1054.18" cy="-306" rx="67.6881" ry="18"/>
<text text-anchor="middle" x="1054.18" y="-302.3" font-family="Times,serif" font-size="14.00">[root] var.yo</text>
</g>
<!-- [root] meta.count&#45;boundary (count boundary fixup)&#45;&gt;[root] var.yo -->
<g id="edge12" class="edge"><title>[root] meta.count&#45;boundary (count boundary fixup)&#45;&gt;[root] var.yo</title>
<path fill="none" stroke="black" d="M967.023,-360.055C982.727,-350.496 1002.5,-338.462 1019.24,-328.273"/>
<polygon fill="black" stroke="black" points="1021.46,-331.019 1028.18,-322.829 1017.82,-325.039 1021.46,-331.019"/>
</g>
<!-- [root] output.bubba&#45;&gt;[root] azurerm_resource_group.thegroup -->
<g id="edge13" class="edge"><title>[root] output.bubba&#45;&gt;[root] azurerm_resource_group.thegroup</title>
<path fill="none" stroke="black" d="M778.002,-218.24C743.198,-208.004 696.429,-194.248 658.269,-183.025"/>
<polygon fill="black" stroke="black" points="658.841,-179.545 648.26,-180.081 656.866,-186.26 658.841,-179.545"/>
</g>
<!-- [root] output.more&#45;&gt;[root] var.appid -->
<g id="edge14" class="edge"><title>[root] output.more&#45;&gt;[root] var.appid</title>
<path fill="none" stroke="black" d="M958.185,-143.871C958.185,-119.67 958.185,-75.2108 958.185,-46.3932"/>
<polygon fill="black" stroke="black" points="961.685,-46.1892 958.185,-36.1893 954.685,-46.1893 961.685,-46.1892"/>
</g>
<!-- [root] output.vm_ip&#45;&gt;[root] azurerm_public_ip.myip -->
<g id="edge15" class="edge"><title>[root] output.vm_ip&#45;&gt;[root] azurerm_public_ip.myip</title>
<path fill="none" stroke="black" d="M717.716,-293.613C638.066,-281.256 514.95,-262.123 451.809,-252.091"/>
<polygon fill="black" stroke="black" points="452.265,-248.619 441.839,-250.503 451.164,-255.532 452.265,-248.619"/>
</g>
<!-- [root] provider.azurerm (close) -->
<g id="node15" class="node"><title>[root] provider.azurerm (close)</title>
<ellipse fill="none" stroke="black" cx="520.185" cy="-378" rx="153.273" ry="18"/>
<text text-anchor="middle" x="520.185" y="-374.3" font-family="Times,serif" font-size="14.00">[root] provider.azurerm (close)</text>
</g>
<!-- [root] provider.azurerm (close)&#45;&gt;[root] azurerm_public_ip.myip -->
<g id="edge16" class="edge"><title>[root] provider.azurerm (close)&#45;&gt;[root] azurerm_public_ip.myip</title>
<path fill="none" stroke="black" d="M499.66,-360.153C468.918,-334.92 410.806,-287.221 375.879,-258.552"/>
<polygon fill="black" stroke="black" points="377.902,-255.685 367.952,-252.046 373.461,-261.096 377.902,-255.685"/>
</g>
<!-- [root] provider.azurerm (close)&#45;&gt;[root] azurerm_subnet.mysub -->
<g id="edge17" class="edge"><title>[root] provider.azurerm (close)&#45;&gt;[root] azurerm_subnet.mysub</title>
<path fill="none" stroke="black" d="M534.709,-360.055C541.898,-351.668 550.719,-341.376 558.673,-332.096"/>
<polygon fill="black" stroke="black" points="561.527,-334.146 565.377,-324.275 556.212,-329.59 561.527,-334.146"/>
</g>
<!-- [root] provisioner.local&#45;exec (close) -->
<g id="node19" class="node"><title>[root] provisioner.local&#45;exec (close)</title>
<ellipse fill="none" stroke="black" cx="174.185" cy="-378" rx="174.369" ry="18"/>
<text text-anchor="middle" x="174.185" y="-374.3" font-family="Times,serif" font-size="14.00">[root] provisioner.local&#45;exec (close)</text>
</g>
<!-- [root] provisioner.local&#45;exec (close)&#45;&gt;[root] azurerm_public_ip.myip -->
<g id="edge22" class="edge"><title>[root] provisioner.local&#45;exec (close)&#45;&gt;[root] azurerm_public_ip.myip</title>
<path fill="none" stroke="black" d="M195.052,-359.871C225.836,-334.604 283.523,-287.254 318.336,-258.679"/>
<polygon fill="black" stroke="black" points="320.734,-261.239 326.243,-252.189 316.292,-255.828 320.734,-261.239"/>
</g>
<!-- [root] root -->
<g id="node20" class="node"><title>[root] root</title>
<ellipse fill="none" stroke="black" cx="520.185" cy="-450" rx="58.4896" ry="18"/>
<text text-anchor="middle" x="520.185" y="-446.3" font-family="Times,serif" font-size="14.00">[root] root</text>
</g>
<!-- [root] root&#45;&gt;[root] meta.count&#45;boundary (count boundary fixup) -->
<g id="edge23" class="edge"><title>[root] root&#45;&gt;[root] meta.count&#45;boundary (count boundary fixup)</title>
<path fill="none" stroke="black" d="M570.31,-440.626C635.501,-429.735 751.008,-410.438 835.446,-396.331"/>
<polygon fill="black" stroke="black" points="836.037,-399.781 845.324,-394.681 834.884,-392.876 836.037,-399.781"/>
</g>
<!-- [root] root&#45;&gt;[root] provider.azurerm (close) -->
<g id="edge24" class="edge"><title>[root] root&#45;&gt;[root] provider.azurerm (close)</title>
<path fill="none" stroke="black" d="M520.185,-431.697C520.185,-423.983 520.185,-414.712 520.185,-406.112"/>
<polygon fill="black" stroke="black" points="523.685,-406.104 520.185,-396.104 516.685,-406.104 523.685,-406.104"/>
</g>
<!-- [root] root&#45;&gt;[root] provisioner.local&#45;exec (close) -->
<g id="edge25" class="edge"><title>[root] root&#45;&gt;[root] provisioner.local&#45;exec (close)</title>
<path fill="none" stroke="black" d="M472.8,-439.414C418.051,-428.337 326.885,-409.893 259.659,-396.292"/>
<polygon fill="black" stroke="black" points="259.999,-392.79 249.503,-394.238 258.61,-399.651 259.999,-392.79"/>
</g>
</g>
</svg>
